<svg width="64" height="64" viewBox="0 0 64 64" fill="none" xmlns="http://www.w3.org/2000/svg">
<g clip-path="url(#clip0_240_2)">
<path d="M50 0H14C6.26801 0 0 6.26801 0 14V50C0 57.732 6.26801 64 14 64H50C57.732 64 64 57.732 64 50V14C64 6.26801 57.732 0 50 0Z" fill="#2A327D"/>
<path d="M30.728 53L31.5549 35.989L25.8846 52.0549L22.5769 50.7555L29.9011 35.2802L18.5604 48.0385L15.9615 45.4396L28.7198 34.0989L13.2445 41.4231L11.9451 38.1154L28.011 32.4451L11 33.272V29.728L28.011 30.6731L11.9451 24.8846L13.2445 21.6951L28.7198 29.0192L15.9615 17.5604L18.5604 15.0797L29.9011 27.7198L22.5769 12.3626L25.8846 10.9451L31.5549 27.1291L30.728 10H34.272L33.3269 27.011L39.1154 10.9451L42.3049 12.3626L34.9808 27.7198L46.4396 15.0797L48.9203 17.5604L36.2802 29.0192L51.6374 21.6951L53.0549 24.8846L36.8709 30.6731L54 29.728V33.272L36.8709 32.4451L53.0549 38.1154L51.6374 41.4231L36.2802 34.0989L48.9203 45.4396L46.4396 48.0385L34.9808 35.2802L42.3049 50.7555L39.1154 52.0549L33.3269 35.989L34.272 53H30.728Z" fill="#6EE7B7"/>
</g>
<defs>
<clipPath id="clip0_240_2">
<rect width="64" height="64" fill="white"/>
</clipPath>
</defs>
</svg>
